<svg width="18" height="18" viewBox="0 0 18 18" xmlns="http://www.w3.org/2000/svg"><title>68F55C9E-7A92-467C-AC2F-A39C79AE768A</title><defs><linearGradient x1="-42.624%" y1="-32.9%" x2="45.93%" y2="52.234%" id="a"><stop stop-color="#F1433C" offset="0%"/><stop stop-color="#FFC903" offset="100%"/></linearGradient><linearGradient x1="-5.118%" y1="-31.467%" x2="53.768%" y2="64.7%" id="b"><stop stop-color="#F1433C" offset="0%"/><stop stop-color="#FFC903" offset="100%"/></linearGradient><linearGradient x1="-11.433%" y1="-23.59%" y2="114.042%" id="c"><stop stop-color="#F1433C" offset="0%"/><stop stop-color="#FFC903" offset="100%"/></linearGradient></defs><g fill="none" fill-rule="evenodd"><path d="M9.031.493c4.72 0 8.547 3.82 8.547 8.53 0 4.712-3.827 8.53-8.547 8.53-4.72 0-8.547-3.818-8.547-8.53 0-4.71 3.827-8.53 8.547-8.53" fill="#FFD791"/><path d="M17.369 9.024c0 4.595-3.733 8.321-8.338 8.321-4.605 0-8.338-3.726-8.338-8.321C.693 4.428 4.426.702 9.031.702c4.605 0 8.338 3.726 8.338 8.322z" fill="url(#a)"/><path d="M9.031.702a8.314 8.314 0 0 1 7.136 4.018L1.73 13.04A8.25 8.25 0 0 1 .693 9.024c0-4.601 3.74-8.322 8.338-8.322" fill="url(#b)"/><path d="M16.442 9.024c0 4.085-3.318 7.396-7.411 7.396S1.62 13.11 1.62 9.024c0-4.086 3.318-7.397 7.411-7.397s7.411 3.311 7.411 7.397z" fill="#FF9F06"/><path d="M15.714 5.82L2.921 13.196A7.338 7.338 0 0 1 1.62 9.024c0-4.084 3.32-7.397 7.411-7.397a7.428 7.428 0 0 1 6.683 4.194z" fill="#FF9F05"/><path d="M9.031 2.056c3.856 0 6.981 3.12 6.981 6.967 0 3.848-3.125 6.968-6.981 6.968S2.05 12.87 2.05 9.023c0-3.847 3.125-6.967 6.981-6.967" fill="#FF8C00"/><path d="M9.031 2.42c3.655 0 6.617 2.956 6.617 6.603 0 3.648-2.962 6.605-6.617 6.605-3.654 0-6.617-2.957-6.617-6.605 0-3.647 2.963-6.604 6.617-6.604" fill="#F4940E"/><path d="M9.031 2.408a6.63 6.63 0 0 1 6 3.809L3.605 12.799a6.54 6.54 0 0 1-1.191-3.775A6.611 6.611 0 0 1 9.03 2.408" fill="#FFBD52"/><path d="M15.405 9.023c0 3.514-2.853 6.363-6.374 6.363-3.52 0-6.374-2.849-6.374-6.363 0-3.513 2.853-6.361 6.374-6.361 3.52 0 6.374 2.848 6.374 6.361z" fill="url(#c)"/><path d="M17.659 9.024c0 4.755-3.863 8.61-8.628 8.61-4.765 0-8.628-3.855-8.628-8.61C.403 4.268 4.266.413 9.031.413c4.765 0 8.628 3.855 8.628 8.61z" fill="#F6A623"/><path d="M5.193 6.027h.87v2.104c0 .26.055.486.101.631-.603-.712-.966-1.69-.97-2.735m6.86 2.104V6.027h.869c-.007 1.045-.368 2.023-.969 2.735.045-.145.1-.37.1-.631m-.942 2.12c.03-.03.056-.061.084-.093 1.41-.71 2.355-2.34 2.362-4.128a.638.638 0 0 0-.636-.631h-.869v-.325a.753.753 0 0 0-.057-.18c-.103-.25-.336-.424-.595-.424H6.716c-.26 0-.492.174-.596.425a.863.863 0 0 0-.057.179v.324h-.87a.638.638 0 0 0-.452.187.604.604 0 0 0-.18.445c.007 1.791.946 3.42 2.36 4.13.024.032.051.06.079.089a2.963 2.963 0 0 0 1.384.823v1.074c-1.098.186-1.886.828-1.886 1.61v.33h5.12v-.33c0-.782-.786-1.424-1.885-1.61v-1.074a2.944 2.944 0 0 0 1.379-.82" fill="#FFF"/><path d="M-3-3h24v24H-3z"/></g></svg>